<?xml version="1.0" encoding="utf-8"?>
<!-- Generator: Adobe Illustrator 19.2.0, SVG Export Plug-In . SVG Version: 6.00 Build 0)  -->
<svg version="1.1" id="Layer_1" xmlns="http://www.w3.org/2000/svg" xmlns:xlink="http://www.w3.org/1999/xlink" x="0px" y="0px"
	 viewBox="0 0 1000 217.4" style="enable-background:new 0 0 1000 217.4;" xml:space="preserve">
<g>
	<path d="M73.1,217.4c15.3,0,27.7-12.4,27.7-27.7v-73c0-9.9-8.1-18-18-18s-18,8.1-18,18v64.6h10.1v-64.6c0-4.4,3.6-7.9,7.9-7.9
		c4.4,0,7.9,3.6,7.9,7.9v73c0,9.7-7.9,17.6-17.6,17.6s-17.6-7.9-17.6-17.6V111c0-15.1,12.3-27.4,27.4-27.4s27.4,12.3,27.4,27.4v70.4
		h55.5V69L82.8,0L0,69v112.3h36.7v-10.1H10.1V73.7l0.3-0.2l72.5-60.4l0.5,0.4l72.3,60.2v97.5h-35.3V111c0-20.6-16.8-37.4-37.4-37.4
		S45.4,90.3,45.4,111v78.7C45.4,205,57.8,217.4,73.1,217.4z"/>
	<g>
		<g>
			<path d="M263.1,184.5c-8.5,0-16.4-1.5-23.8-4.5c-7.4-3-14.1-7.5-20.1-13.5c-6-6-10.8-14.2-14.3-24.6c-3.5-10.4-5.3-22.5-5.3-36.2
				c0-24.2,6.2-43,18.6-56.3c12.4-13.3,27.4-20,44.9-20c15.7,0,28.7,4.7,39,14.2c10.3,9.5,16.4,22.2,18.4,38.2l-21.7,3.6
				c-3.8-24.1-15.7-36.1-35.7-36.1c-11.9,0-21.7,4.8-29.5,14.3c-7.8,9.6-11.7,23.5-11.7,41.9c0,19.7,3.8,34.4,11.5,44.2
				c7.6,9.8,17.6,14.7,29.7,14.7c20.7,0,32.3-13.3,34.8-39.9l22.7,3.6c-1.4,17.3-7.2,31-17.4,41.1
				C293.1,179.5,279.7,184.5,263.1,184.5z"/>
			<path d="M334.2,181.3v-155h21.2v155L334.2,181.3L334.2,181.3z"/>
			<rect x="377.2" y="68.8" width="20.6" height="112.6"/>
			<path d="M418.9,217.4V68.8h19.8v10.8h0.4c1.4-1.8,3.3-3.7,5.5-5.5c2.3-1.8,5.8-3.7,10.6-5.6c4.8-1.9,10-2.9,15.5-2.9
				c13.7,0,25.4,5.4,34.9,16.2c9.6,10.8,14.3,25.2,14.3,43.2c0,18.3-4.6,32.7-13.8,43.4c-9.2,10.7-21,16-35.3,16
				c-7.6,0-14.2-1.6-19.5-4.7c-5.4-3.1-9.2-6.2-11.5-9.3h-0.4v46.9L418.9,217.4L418.9,217.4z M439.5,110.4v31.4
				c0,6.5,2.6,12.1,7.8,16.9c5.2,4.7,11.7,7.1,19.6,7.1c10.2,0,18.2-3.6,23.9-10.7c5.7-7.1,8.6-17.2,8.6-30.1
				c0-12.9-2.9-22.9-8.6-29.9c-5.7-7.1-13.7-10.6-23.9-10.6c-8.2,0-14.8,2.6-19.9,7.9C442,97.6,439.5,103.6,439.5,110.4z"/>
			<path d="M533.5,217.4V68.8h19.8v10.8h0.4c1.4-1.8,3.3-3.7,5.5-5.5c2.3-1.8,5.8-3.7,10.6-5.6c4.8-1.9,10-2.9,15.5-2.9
				c13.7,0,25.4,5.4,34.9,16.2c9.6,10.8,14.3,25.2,14.3,43.2c0,18.3-4.6,32.7-13.8,43.4c-9.2,10.7-21,16-35.3,16
				c-7.6,0-14.2-1.6-19.5-4.7c-5.4-3.1-9.2-6.2-11.5-9.3h-0.4v46.9L533.5,217.4L533.5,217.4z M554.1,110.4v31.4
				c0,6.5,2.6,12.1,7.8,16.9c5.2,4.7,11.7,7.1,19.6,7.1c10.2,0,18.2-3.6,23.9-10.7c5.7-7.1,8.6-17.2,8.6-30.1
				c0-12.9-2.9-22.9-8.6-29.9c-5.7-7.1-13.7-10.6-23.9-10.6c-8.2,0-14.8,2.6-19.9,7.9C556.6,97.6,554.1,103.6,554.1,110.4z"/>
			<rect x="648.2" y="68.8" width="20.6" height="112.6"/>
			<path d="M690.6,181.3V68.8h20.2v10.8h0.4c3-4,7.3-7.3,13-10c5.7-2.7,11.6-4,17.8-4c12.3,0,22.2,3.8,29.5,11.3
				c7.4,7.5,11,17.8,11,30.8v73.7h-20.8v-67.7c0-19.3-7.9-28.9-23.8-28.9c-8.1,0-14.5,2.3-19.4,6.9c-4.9,4.6-7.3,10.9-7.3,19v70.7
				H690.6z"/>
			<path d="M803.2,190.4l16.6-8.7c3,6.1,6.6,10.8,10.9,14.1c4.3,3.4,10.2,5,17.7,5c8.4,0,14.9-2.2,19.8-6.6c4.8-4.4,7.2-10.7,7.2-19
				v-13.3H875c-6.7,8-16.7,12-30.2,12c-14.7,0-26.7-4.9-36-14.6c-9.3-9.7-13.9-22.9-13.9-39.6c0-16.4,4.8-29.5,14.3-39.4
				c9.6-9.9,21.3-14.8,35.4-14.8c13,0,23.4,4.3,31,12.8h0.4v-9.9h20V172c0,14.8-4.2,26.1-12.7,33.8c-8.5,7.7-20,11.6-34.6,11.6
				c-11.5,0-21.1-2.5-28.9-7.4C812,205,806.5,198.5,803.2,190.4z M875.4,135v-28.6c0-6.2-2.5-11.7-7.5-16.4
				c-5-4.8-11.6-7.2-19.9-7.2c-10.2,0-18.2,3.2-23.9,9.7c-5.7,6.4-8.6,15.5-8.6,27.3c0,11.7,2.9,20.9,8.6,27.4
				c5.7,6.5,13.7,9.8,23.9,9.8c7.9,0,14.5-2.2,19.6-6.5C872.8,146.1,875.4,141,875.4,135z"/>
			<path d="M907.4,143.5l19.1-4.2c2.1,18.4,11.8,27.6,29.1,27.6c8.2,0,14.5-1.5,18.9-4.5c4.4-3,6.6-6.9,6.6-11.7
				c0-5-2.1-8.7-6.2-11.1c-4.1-2.5-12.7-5.6-25.7-9.2c-13.6-3.7-23.3-8-29.1-12.8c-5.8-4.9-8.7-11.5-8.7-19.9
				c0-8.6,3.6-16.1,10.7-22.5c7.1-6.4,17-9.6,29.4-9.6c12.6,0,22.6,3,29.9,8.9c7.4,5.9,12.4,13.9,15.1,23.8l-17.8,4.9
				c-4.4-13.4-13.4-20.2-27-20.2c-6.8,0-12,1.4-15.7,4.1c-3.7,2.8-5.5,6.1-5.5,9.9c0,4.2,1.9,7.4,5.7,9.6c3.8,2.1,12.7,5.2,26.8,9.1
				c14,4,23.7,8.6,29,13.9s8,12.4,8,21.3c0.1,8.9-3.5,16.7-10.8,23.5c-7.4,6.7-18.3,10.1-32.9,10.1c-15.2,0-26.8-3.9-34.8-11.7
				C913.3,165.1,908.7,155.3,907.4,143.5z"/>
		</g>
		<rect x="377.2" y="33.5" width="20.6" height="20.6"/>
		<rect x="648.2" y="33.5" width="20.6" height="20.6"/>
	</g>
</g>
<path d="M1129.8,137.6l20.6,5.1c-2,13-7.1,23.3-15.5,30.8c-8.4,7.5-19.2,11.3-32.5,11.3c-15.2,0-27.5-5.3-37.1-15.9
	c-9.6-10.6-14.3-25.1-14.3-43.5c0-18.5,5-33.1,14.9-43.6c9.9-10.5,22.2-15.8,36.7-15.8c12.9,0,23.6,3.9,32.2,11.6
	c8.6,7.7,13.6,17.7,15,30l-20.2,3.2c-1.1-7.5-3.9-13.7-8.4-18.6c-4.5-4.9-10.7-7.3-18.6-7.3c-9.5,0-17.1,3.5-22.7,10.6
	c-5.7,7.1-8.5,17.1-8.5,29.9c0,12.9,2.8,22.9,8.4,30c5.6,7.2,13.3,10.7,23,10.7c7.9,0,14.1-2.7,18.5-8.1
	C1125.7,152.6,1128.6,145.8,1129.8,137.6z"/>
<path d="M1213.1,184.7c-15,0-27.4-5.2-37.1-15.7c-9.7-10.5-14.5-25.1-14.5-43.7c0-18.4,5-32.9,14.9-43.5
	c9.9-10.6,22.2-15.9,36.7-15.9c14.3,0,26.4,5.3,36.2,15.9c9.8,10.6,14.8,25.1,14.8,43.5c0,18.7-4.8,33.3-14.3,43.7
	C1240.2,179.5,1228,184.7,1213.1,184.7z M1214.1,166c9.1,0,16.4-3.6,22.1-10.7c5.7-7.1,8.5-17.2,8.5-30c0-12.7-2.8-22.7-8.5-29.8
	c-5.7-7.1-13-10.7-22.1-10.7c-9.3,0-16.9,3.5-22.6,10.5c-5.7,7-8.6,17-8.6,30c0,13,2.9,23.1,8.7,30.2
	C1197.4,162.5,1204.9,166,1214.1,166z"/>
<path d="M1276.6,181.5V69h18.7v10.8h0.4c2.7-4.1,6.6-7.5,11.8-10.1c5.2-2.6,10.7-3.9,16.5-3.9c6.7,0,12.5,1.5,17.5,4.6
	c5,3,8.9,6.8,11.6,11.4h0.4c3-4.4,7.2-8.1,12.7-11.3c5.5-3.1,11.7-4.7,18.5-4.7c12.5,0,22.3,3.5,29.5,10.6
	c7.2,7.1,10.8,16.6,10.8,28.5v76.7h-19.5v-71.4c0-16.8-7.3-25.3-21.9-25.3c-7.2,0-12.8,2.1-16.8,6.4c-4,4.2-5.9,10.1-5.9,17.4v72.8
	h-19.5v-71.4c0-16.8-7.3-25.3-21.9-25.3c-7.5,0-13.2,2.2-17,6.7c-3.8,4.5-5.7,10.2-5.7,17.1v72.8H1276.6z"/>
<rect x="1019.2" y="160.9" width="20.6" height="20.6"/>
</svg>
