<?xml version="1.0" encoding="utf-8"?>
<!-- Generator: Adobe Illustrator 19.2.0, SVG Export Plug-In . SVG Version: 6.00 Build 0)  -->
<svg version="1.1" id="Layer_1" xmlns="http://www.w3.org/2000/svg" xmlns:xlink="http://www.w3.org/1999/xlink" x="0px" y="0px"
	 viewBox="0 0 165.6 217.4" style="enable-background:new 0 0 165.6 217.4;" xml:space="preserve">
<path d="M73.1,217.4c15.3,0,27.7-12.4,27.7-27.7v-73c0-9.9-8.1-18-18-18s-18,8.1-18,18v64.6h10.1v-64.6c0-4.4,3.6-7.9,7.9-7.9
	c4.4,0,7.9,3.6,7.9,7.9v73c0,9.7-7.9,17.6-17.6,17.6s-17.6-7.9-17.6-17.6V111c0-15.1,12.3-27.4,27.4-27.4s27.4,12.3,27.4,27.4v70.4
	h55.5V69L82.8,0L0,69v112.3h36.7v-10.1H10.1V73.7l0.3-0.2l72.5-60.4l0.5,0.4l72.3,60.2v97.5h-35.3V111c0-20.6-16.8-37.4-37.4-37.4
	S45.4,90.3,45.4,111v78.7C45.4,205,57.8,217.4,73.1,217.4z"/>
</svg>
